<svg id="Calque_1" data-name="Calque 1" xmlns="http://www.w3.org/2000/svg" viewBox="0 0 900.63 126.12"><defs><style>.cls-1{fill:#74faaa;}</style></defs><title>bouton_haut</title><path class="cls-1" d="M847,0H53.66a17.79,17.79,0,0,0-4.9.73,22.21,22.21,0,0,0-4.75,2,20.83,20.83,0,0,0-4.09,3A14.56,14.56,0,0,0,37,9.47L1.52,77.53a12.64,12.64,0,0,0-1.5,5,7.49,7.49,0,0,0,.83,4.13,6.83,6.83,0,0,0,3,2.82,10.76,10.76,0,0,0,4.89,1H891.92a10.77,10.77,0,0,0,4.89-1,6.83,6.83,0,0,0,3-2.82,7.5,7.5,0,0,0,.83-4.13,12.63,12.63,0,0,0-1.5-5L863.59,9.47a14.54,14.54,0,0,0-2.88-3.72,20.77,20.77,0,0,0-4.09-3,22.21,22.21,0,0,0-4.75-2A17.79,17.79,0,0,0,847,0"/><path d="M117.16,16.53h-2.44A101.06,101.06,0,0,0,92,18.86a59.81,59.81,0,0,0-15.87,6,46,46,0,0,0-10.56,8.06,49.29,49.29,0,0,0-6.61,8.53l-1.31,2.1a34,34,0,0,0-4.08,8.84A12.5,12.5,0,0,0,54,61.25c1.37,2.77,4.16,5.2,9,6.94S74.93,71,84.58,71h2.66A98.26,98.26,0,0,0,111,68.34,58.33,58.33,0,0,0,126.85,62a39.51,39.51,0,0,0,9.38-7.62,29.67,29.67,0,0,0,4.56-6.71l.9-1.85H113.55a12.55,12.55,0,0,1-1.4,1.67A15.75,15.75,0,0,1,109,50a21.2,21.2,0,0,1-5.45,2.22,32.2,32.2,0,0,1-8.19,1,19.21,19.21,0,0,1-6.95-1,4.72,4.72,0,0,1-3.26-6,13,13,0,0,1,1.46-3.53l.49-.84a18.64,18.64,0,0,1,2.5-3.42,16.91,16.91,0,0,1,3.85-3.08A20.72,20.72,0,0,1,99,33.08a33,33,0,0,1,7.85-.86,22.58,22.58,0,0,1,6.88.85,6,6,0,0,1,3.07,2,3.58,3.58,0,0,1,.71,2.17,6.51,6.51,0,0,1-.2,1.48h27.82l.5-1a18.54,18.54,0,0,0,1.93-6.55,9.82,9.82,0,0,0-2-6.93c-1.65-2.15-4.49-4.06-9.06-5.43s-10.83-2.2-19.42-2.2"/><path d="M185.51,53.16a21.38,21.38,0,0,1-7-1,7.78,7.78,0,0,1-3.74-2.51,5.6,5.6,0,0,1-1.13-3.39,8.87,8.87,0,0,1,.8-3.62l.37-.84A13,13,0,0,1,177,38.39a15.6,15.6,0,0,1,3.8-3.08,20.9,20.9,0,0,1,5.63-2.23,32.28,32.28,0,0,1,7.71-.86,23.91,23.91,0,0,1,7,.86,8.28,8.28,0,0,1,3.82,2.23,5.12,5.12,0,0,1,1.32,3.08,7.83,7.83,0,0,1-.58,3.42l-.38,1a13,13,0,0,1-2.17,3.63,16.15,16.15,0,0,1-3.89,3.33,21.18,21.18,0,0,1-5.8,2.45,30.92,30.92,0,0,1-7.89.95m16.9-36.62h-3.49a95.07,95.07,0,0,0-22.14,2.33,53,53,0,0,0-15.07,6,38.68,38.68,0,0,0-9.59,8.06,39.27,39.27,0,0,0-5.52,8.53l-1,2.1a28,28,0,0,0-2.75,8.78,13.32,13.32,0,0,0,1.84,8.91c1.78,2.78,4.92,5.22,10,7S166.83,71,176.34,71h3.8a92.68,92.68,0,0,0,24-2.82,51.11,51.11,0,0,0,15.74-7,35.94,35.94,0,0,0,9.16-8.91,34.37,34.37,0,0,0,4.47-8.78l.72-2.1a24.52,24.52,0,0,0,1.51-8.53,12.76,12.76,0,0,0-3-8.06c-2-2.41-5.26-4.48-10.17-6s-11.46-2.33-20.23-2.33"/><polygon points="339.55 17.5 306.25 17.5 287.81 39.72 281.32 17.5 246.35 17.5 228.77 69.84 257.35 69.84 265.24 42.87 272.45 69.84 286.17 69.84 307.43 42.87 301.34 69.84 330.01 69.84 339.55 17.5"/><polygon points="437.79 17.5 404.48 17.5 389.63 39.72 379.56 17.5 344.58 17.5 335.46 69.84 364.06 69.84 367.58 42.87 379.15 69.84 392.87 69.84 409.77 42.87 408.04 69.84 436.71 69.84 437.79 17.5"/><polygon points="505.44 17.5 442.81 17.5 442.16 69.84 510.49 69.84 509.06 54.17 470.04 54.17 469.9 49.55 507.9 49.55 506.62 35.23 469.46 35.23 469.34 31.28 506.69 31.28 505.44 17.5"/><polygon points="591.1 17.5 564.57 17.5 568.85 40.21 540.13 17.5 510.18 17.5 515.34 69.84 544.16 69.84 540.28 42.59 573.89 69.84 603.24 69.84 591.1 17.5"/><path d="M637.58,16.53h-2.44c-8.92,0-15.67.87-20.74,2.33s-8.52,3.54-10.76,6A13.89,13.89,0,0,0,600,32.86a24.78,24.78,0,0,0,.71,8.53l.5,2.1a31.59,31.59,0,0,0,3.51,8.84,30,30,0,0,0,8.13,8.91,44.72,44.72,0,0,0,15,6.94A90.87,90.87,0,0,0,651.74,71h2.66c9.36,0,16.35-1,21.49-2.64s8.41-3.86,10.42-6.32a12.36,12.36,0,0,0,2.84-7.62,17.89,17.89,0,0,0-1.2-6.71l-.69-1.85H659.12a5.75,5.75,0,0,1,0,1.67A4.75,4.75,0,0,1,658.09,50a7.63,7.63,0,0,1-3.54,2.22,23.2,23.2,0,0,1-7.36,1,27.49,27.49,0,0,1-7.82-1,16.21,16.21,0,0,1-5.23-2.56A12.87,12.87,0,0,1,631,46.19a13.41,13.41,0,0,1-1.57-3.53l-.24-.84a10.12,10.12,0,0,1-.44-3.42,5.23,5.23,0,0,1,1.2-3.08,7.64,7.64,0,0,1,3.71-2.23,24.45,24.45,0,0,1,7.11-.86,30.76,30.76,0,0,1,7.61.85,16.71,16.71,0,0,1,4.74,2,11.12,11.12,0,0,1,2.57,2.17,11.76,11.76,0,0,1,1.07,1.48h27.82l-.39-1a24.52,24.52,0,0,0-3.7-6.55,29.58,29.58,0,0,0-7.9-6.93,46.65,46.65,0,0,0-13.72-5.43,92.08,92.08,0,0,0-21.31-2.2"/><polygon points="743.09 17.5 680.47 17.5 700.3 69.84 768.63 69.84 761.07 54.17 722.05 54.17 720.1 49.55 758.1 49.55 751.21 35.23 714.06 35.23 712.39 31.28 749.73 31.28 743.09 17.5"/><path d="M785,37.37l-3.43-6.43h19.77a12,12,0,0,1,2.43.23,7.58,7.58,0,0,1,1.89.65,5.83,5.83,0,0,1,1.42,1,5.91,5.91,0,0,1,1,1.31,3.62,3.62,0,0,1,.49,1.28,1.33,1.33,0,0,1-.24,1,2.13,2.13,0,0,1-1.15.68,8.25,8.25,0,0,1-2.22.24H785M805.23,17.5H747.84l25.64,52.34H802.3l-9.45-17.7H808.5a21.11,21.11,0,0,1,5.35.64,15.85,15.85,0,0,1,4.33,1.83,16.11,16.11,0,0,1,3.47,2.89,21.49,21.49,0,0,1,2.75,3.82l3.89,6.77.33.57c.11.17.21.33.31.48a3.2,3.2,0,0,0,.34.39,2.49,2.49,0,0,0,.4.32h29.65l-.28-.46c-.33-.29-.65-.58-1-.91s-.65-.68-1-1.09-.69-.87-1.06-1.4-.77-1.13-1.2-1.83l-5.18-8.37a27.84,27.84,0,0,0-3.8-4.86A27.49,27.49,0,0,0,841.05,47a30.29,30.29,0,0,0-5.76-2.87,36.41,36.41,0,0,0-6.73-1.78,13.25,13.25,0,0,0,3.31-1.2,7.59,7.59,0,0,0,2.68-2.26,5.39,5.39,0,0,0,1-3.49,10.62,10.62,0,0,0-1.78-4.89l-.37-.61a23.43,23.43,0,0,0-5.43-6.13A25.58,25.58,0,0,0,821.17,20a36.33,36.33,0,0,0-7.7-1.95,57,57,0,0,0-8.24-.56"/></svg>